<svg viewBox="0 0 99 102" fill="currentColor" xmlns="http://www.w3.org/2000/svg">
<path fill-rule="evenodd" clip-rule="evenodd" d="M6.92606 73.3001C5.33257 73.8809 4.74117 75.803 5.84692 77.089C12.7248 85.0882 35.1546 108.073 59.923 100.199C85.6599 92.0175 86.651 38.8336 86.4415 24.4541C86.4406 24.3947 86.4889 24.354 86.5483 24.354C93.0963 24.354 98.4044 18.9022 98.4044 12.177C98.4044 5.45183 93.0963 0 86.5483 0C80.0004 0 74.6923 5.45183 74.6923 12.177C74.6923 17.0325 77.4592 21.2242 81.462 23.1797L80.3224 23.7057C65.6245 30.4928 29.4673 47.1891 4.26011 47.9618C1.53758 48.0453 -0.596952 50.4239 0.151008 53.043C1.40106 57.4202 3.77598 63.7834 7.94736 68.9307C9.11936 70.3769 8.67498 72.6626 6.92606 73.3001ZM4.90224 50.7205C3.60882 50.7716 2.66149 51.9919 3.03977 53.2298C4.10183 56.7054 5.82276 61.1049 8.46418 65.0247C9.45209 66.4907 10.5545 67.8692 11.7839 69.1022C12.8607 70.1822 14.4947 70.4046 15.9061 69.8266C43.4154 58.5612 67.152 42.9818 81.7003 26.5646C81.854 26.3912 81.6591 26.1379 81.4487 26.235C80.3378 26.748 79.0986 27.3202 77.7343 27.9454C71.8139 30.6585 63.7624 34.2647 54.786 37.804C39.1448 43.9712 20.2755 50.1128 4.90224 50.7205Z" fill="#042C2C"/>
</svg>
